<?xml version="1.0" encoding="UTF-8" standalone="no"?>
<svg
   fill="none"
   height="10.268312"
   viewBox="0 0 14.986518 10.268312"
   width="14.986518"
   version="1.1"
   id="svg4"
   sodipodi:docname="home.svg"
   xml:space="preserve"
   inkscape:version="1.2.2 (b0a8486541, 2022-12-01)"
   xmlns:inkscape="http://www.inkscape.org/namespaces/inkscape"
   xmlns:sodipodi="http://sodipodi.sourceforge.net/DTD/sodipodi-0.dtd"
   xmlns="http://www.w3.org/2000/svg"
   xmlns:svg="http://www.w3.org/2000/svg"><defs
     id="defs8" /><sodipodi:namedview
     id="namedview6"
     pagecolor="#ffffff"
     bordercolor="#878787"
     borderopacity="1"
     inkscape:showpageshadow="0"
     inkscape:pageopacity="1"
     inkscape:pagecheckerboard="false"
     inkscape:deskcolor="#505050"
     showgrid="false"
     inkscape:zoom="14.782951"
     inkscape:cx="13.698212"
     inkscape:cy="3.1793381"
     inkscape:window-width="1600"
     inkscape:window-height="827"
     inkscape:window-x="0"
     inkscape:window-y="0"
     inkscape:window-maximized="1"
     inkscape:current-layer="svg4" /><path
     d="m 4.21768,0.34389069 c 0.29627,-0.280105 0.7597,-0.280105 1.05597,0 L 8.996,3.8632377 c 0.23033,0.217754 0.36083,0.520723 0.36083,0.837671 v 4.280112 c 0,0.636648 -0.51614,1.1527923 -1.15279,1.1527923 H 6.66698 c -0.63667,0 -1.15279,-0.5161443 -1.15279,-1.1527923 v -1.921318 c 0,-0.212198 -0.17204,-0.38424 -0.38426,-0.38424 H 4.3614 c -0.21222,0 -0.38426,0.172042 -0.38426,0.38424 v 1.921318 c 0,0.636648 -0.51612,1.1527923 -1.15279,1.1527923 H 1.28729 c -0.63667,0 -1.15279,-0.5161443 -1.15279,-1.1527923 v -4.280112 c 0,-0.316948 0.1305,-0.619917 0.36081,-0.837671 z m 0.52798,0.55845 L 1.0233,4.4216877 c -0.0768,0.07258 -0.12027,0.173572 -0.12027,0.279221 v 4.280112 c 0,0.21219 0.17204,0.384263 0.38426,0.384263 h 1.53706 c 0.21222,0 0.38426,-0.172073 0.38426,-0.384263 v -1.921318 c 0,-0.63664 0.51612,-1.152767 1.15279,-1.152767 h 0.76853 c 0.63667,0 1.15279,0.516127 1.15279,1.152767 v 1.921318 c 0,0.21219 0.17207,0.384263 0.38426,0.384263 h 1.53706 c 0.21219,0 0.38426,-0.172073 0.38426,-0.384263 v -4.280112 c 0,-0.105649 -0.0435,-0.206641 -0.12027,-0.279221 z"
     fill="#212121"
     id="path2"
     style="fill:#72716d;fill-opacity:1;stroke:#72716d;stroke-width:0.269;stroke-linecap:round;stroke-linejoin:round;stroke-dasharray:none;stroke-opacity:1" /><path
     d="m 14.32419,9.1337727 a 0.57137484,0.57137484 0 0 1 -0.44567,-0.211408 l -2.75974,-3.428249 a 0.57137484,0.57137484 0 0 1 0,-0.725646 l 2.85688,-3.428249 a 0.5720889,0.5720889 0 0 1 0.87991,0.73136 l -2.55404,3.062569 2.46834,3.062569 a 0.57137484,0.57137484 0 0 1 -0.44568,0.937054 z"
     fill="#231f20"
     id="path116"
     style="fill:#72716d;fill-opacity:1;stroke:none;stroke-width:0.571375;stroke-opacity:1" /></svg>
