<?xml version="1.0" encoding="UTF-8" standalone="no"?>
<svg
   fill="none"
   height="10.268313"
   viewBox="0 0 14.987701 10.268313"
   width="14.9877"
   version="1.1"
   id="svg4"
   sodipodi:docname="home (1).svg"
   xml:space="preserve"
   inkscape:version="1.2.2 (b0a8486541, 2022-12-01)"
   xmlns:inkscape="http://www.inkscape.org/namespaces/inkscape"
   xmlns:sodipodi="http://sodipodi.sourceforge.net/DTD/sodipodi-0.dtd"
   xmlns="http://www.w3.org/2000/svg"
   xmlns:svg="http://www.w3.org/2000/svg"><defs
     id="defs8" /><sodipodi:namedview
     id="namedview6"
     pagecolor="#505050"
     bordercolor="#eeeeee"
     borderopacity="1"
     inkscape:showpageshadow="0"
     inkscape:pageopacity="0"
     inkscape:pagecheckerboard="0"
     inkscape:deskcolor="#505050"
     showgrid="false"
     inkscape:zoom="20.90625"
     inkscape:cx="6.9835575"
     inkscape:cy="7.4618834"
     inkscape:window-width="1600"
     inkscape:window-height="827"
     inkscape:window-x="0"
     inkscape:window-y="0"
     inkscape:window-maximized="1"
     inkscape:current-layer="svg4" /><path
     d="m 4.2176769,0.34389137 c 0.2962672,-0.28010507 0.7597045,-0.28010507 1.0559717,0 L 8.996002,3.8632384 C 9.22633,4.0809929 9.356825,4.3839616 9.356825,4.7009099 v 4.280112 c 0,0.6366482 -0.516142,1.1527921 -1.15279,1.1527921 H 6.6669806 c -0.636671,0 -1.1527907,-0.5161439 -1.1527907,-1.1527921 V 7.0597041 c 0,-0.212198 -0.1720425,-0.3842405 -0.3842636,-0.3842405 H 4.3613992 c -0.2122211,0 -0.3842636,0.1720425 -0.3842636,0.3842405 v 1.9213178 c 0,0.6366482 -0.5161197,1.1527921 -1.1527907,1.1527921 H 1.2872907 c -0.63667095,0 -1.15279075,-0.5161439 -1.15279075,-1.1527921 v -4.280112 c 0,-0.3169483 0.1304959,-0.619917 0.3608081,-0.8376715 z M 4.7456627,0.90234157 1.0232939,4.4216886 c -0.0767681,0.07258 -0.12026685,0.1735719 -0.12026685,0.2792213 v 4.280112 c 0,0.2121902 0.17204255,0.3842632 0.38426365,0.3842632 h 1.5370542 c 0.2122211,0 0.3842636,-0.172073 0.3842636,-0.3842632 V 7.0597041 c 0,-0.6366402 0.5161198,-1.1527676 1.1527907,-1.1527676 h 0.7685271 c 0.6366709,0 1.1527907,0.5161274 1.1527907,1.1527676 v 1.9213178 c 0,0.2121902 0.1720732,0.3842632 0.3842636,0.3842632 H 8.204035 c 0.21219,0 0.384263,-0.172073 0.384263,-0.3842632 v -4.280112 c 0,-0.1056494 -0.0435,-0.2066416 -0.120274,-0.2792213 z"
     fill="#212121"
     id="path2"
     style="fill:#1a1a1a;stroke:#1a1a1a;stroke-width:0.269;stroke-linecap:round;stroke-linejoin:round;stroke-dasharray:none" /><path
     d="M 14.324192,9.133774 A 0.57137484,0.57137484 0 0 1 13.87852,8.922366 L 11.118779,5.4941168 a 0.57137484,0.57137484 0 0 1 0,-0.7256461 l 2.856874,-3.428249 a 0.5720889,0.5720889 0 0 1 0.879918,0.7313598 l -2.554046,3.0625691 2.468339,3.0625689 A 0.57137484,0.57137484 0 0 1 14.324192,9.133774 Z"
     fill="#231f20"
     id="path116"
     style="fill:#1a1a1a;stroke:none;stroke-width:0.571375" /></svg>
